# xmcd CD database file
#
# Track frame offsets:
#	150
#	11067
#	18787
#	31080
#	41800
#	50180
#	57515
#	69505
#	77780
#	89310
#	97827
#	107920
#	117182
#	130275
#	145892
#	159350
#	171805
#	179940
#	194620
#	205677
#	217997
#	240807
#	249770
#	263525
#
# Disc length: 3663 seconds
#
# Revision: 0
# Processed by: cddbd v1.5.1PL0 Copyright (c) Steve Scherf et al.
# Submitted via: CDex 1.60beta1
#
DISCID=460e4d18
DTITLE=Groovey Joe Poovey - Greatest Grooves
DYEAR=0
DGENRE=Country
TTITLE0=Move Around
TTITLE1=Sweet Louella
TTITLE2=Ten Long Fingers
TTITLE3=Careful Baby
TTITLE4=My Life's Ambition
TTITLE5=Nursery Rock
TTITLE6=The Thrill Of Love
TTITLE7=Don't Blame It On Me
TTITLE8=Silence Baby
TTITLE9=Part Time Hero
TTITLE10=Move Around (Live)
TTITLE11=Honolulu Rock-A-Roll-A (Live)
TTITLE12=Livin' Alone
TTITLE13=Ocean Of Diamonds
TTITLE14=Pride (Live)
TTITLE15=Will The Circle Be Unbroken (Live)
TTITLE16=You Are My Sunshine
TTITLE17=Deep Ellum Blues
TTITLE18=From The Jungle To The Zoo
TTITLE19=Ten Long Fingers (Deja Vu)
TTITLE20=Deep Ellum Rock
TTITLE21=Santa's Helper
TTITLE22=Christmas Filled With Cheer
TTITLE23=Move Around (Earliest Version)
EXTD=YEAR: 0
EXTT0=
EXTT1=
EXTT2=
EXTT3=
EXTT4=
EXTT5=
EXTT6=
EXTT7=
EXTT8=
EXTT9=
EXTT10=
EXTT11=
EXTT12=
EXTT13=
EXTT14=
EXTT15=
EXTT16=
EXTT17=
EXTT18=
EXTT19=
EXTT20=
EXTT21=
EXTT22=
EXTT23=
PLAYORDER=
